<?xml version="1.0" encoding="utf-8"?>
<!-- Generator: Adobe Illustrator 17.1.0, SVG Export Plug-In . SVG Version: 6.00 Build 0)  -->
<!DOCTYPE svg PUBLIC "-//W3C//DTD SVG 1.1//EN" "http://www.w3.org/Graphics/SVG/1.1/DTD/svg11.dtd">
<svg version="1.1" id="Layer_1" xmlns="http://www.w3.org/2000/svg" xmlns:xlink="http://www.w3.org/1999/xlink" x="0px" y="0px"
	 viewBox="13.1 14.7 131.2 131.2" enable-background="new 13.1 14.7 131.2 131.2" xml:space="preserve">
<circle cx="78.8" cy="80.4" r="65.6"/>
<path fill="#FFFFFF" d="M59.2,33.2L58.4,32l4.2-1.3l0,1.5l2.2,6.8l0.6,0.6l0.8,0.1l0.7-0.2l0.6-0.6l0.1-0.8l-2.2-6.8L64.5,30l4-1.3
	l0,1.5l2.4,7.6l0.4,0.8l-1.5,2.9l-5.1,1.6l-2.9-1.5l-0.1-0.9L59.2,33.2z M92.9,42.8l-7.5-2.2l0.8-1.3l2.7-9.4l0-1.5l7.5,2.2l1.7,3.1
	L96,41.1L92.9,42.8z M92.3,39.1l0.7-0.7l1.1-4l-0.2-1l-0.7-0.7l-1.1-0.3l-0.2,0.1l-1.8,6.2l0.2,0.3l1,0.3L92.3,39.1z M73.9,39.2
	l-0.4,1.5l4-0.1L77,39.1l-0.1-5.2L76.8,33l0.4,0.9l4.1,6.6l2.4,0l-0.2-11.2l0.4-1.5L80,27.9l0.5,1.4l0.1,3.9l0.1,0.9l-0.4-0.9
	l-3.2-5.3L73.2,28l0.6,1.4L73.9,39.2z M52.4,48.8l0.4,1.4l3.6-2.4l-1.2-0.9l-2-3l0-0.3l1.8-1.2l0.3,0l2,3l0.4,1.5l3.6-2.4l-1.2-0.9
	l-5.5-8.1L54.3,34l-3.6,2.4l1.2,0.9l1.5,2.2l-0.1,0.3l-1.8,1.2l-0.3,0l-1.5-2.2l-0.4-1.4l-3.6,2.4l1.2,0.9L52.4,48.8z M96.6,44.3
	l6.7,4.1l3-2.5l-1.9-0.5l-2.6-1.6l-0.1-0.4l0.9-1.5l0.2-0.1l1,0.6l0.9,1.1l2-3.2l-1.4-0.3l-1-0.6l-0.1-0.2l0.7-1.1l0.2-0.1l2.6,1.6
	l1.1,1.3l0.8-3.5l-6.5-4l-0.4,1.5l-5.1,8.3L96.6,44.3z M138.3,80.4c0,32.8-26.7,59.6-59.6,59.6c-32.8,0-59.6-26.7-59.6-59.6
	c0-32.8,26.7-59.6,59.6-59.6C111.6,20.8,138.3,47.5,138.3,80.4z M24.6,68.4c0,0.3,0.1,1.2,1,1.2c0,0,0,0,0,0h17.6c0,0,0,0,0,0
	c0.7,0,1-1.3,1-1.3l0,0c5-14.3,18.6-24.6,34.6-24.6c16,0,29.6,10.3,34.6,24.6h0c0,0,0,0.1,0,0.1c0.1,0.1,0.1,0.3,0.2,0.4
	c0.2,0.4,0.4,0.7,0.8,0.7c0,0,0,0,0,0H132c0,0,0,0,0,0c1,0,1-1,1-1.2c-5.5-24.9-27.7-43.5-54.2-43.5C52.2,24.8,30,43.5,24.6,68.4z
	 M118.9,76.6V79h2.2v-4.6h-8.7V79h2.2v-2.3h0.8v8.2h-1.2v2.3h5.3v-2.3h-1.2v-8.2H118.9z M75.9,60.7c-1.4,2.5-1.8,3-1.8,3
	s-8.9-3.6-14.6,3.5c-5.7,7.1-1.9,18,0.8,22.7c2.7,4.7,7.9,13.1,17.4,20.6c5.9,0,5.9,0,5.9,0s17.5-13,20.5-27.8
	c2.9-14.8-5-19.5-10.4-20C90,68.5,88.3,72,88.3,72l5.4,0l-7.3,12.7l4.1,0l-13.5,17.9l5.2-13.2l-6.2,0l5.5-12.7l-6.5,0l8.8-18.3
	c0,0,2,0,4,0c2,0,1.9-1.6,1.9-3.6c0-2-0.1-2.9-1.6-2.9c-5.3,0-10.7-0.3-16.1-0.1c-2.5,0.1-5,0.4-7.4,1.3c-3,1.1-5.7,2.6-8,4.8
	c-1.4,1.4-2.5,3-3.5,4.6c-3.2,5.1-3.4,13.3-3,16.9c0,0.5,0.3,1.7,1.4,1.7c0.7,0,1-0.5,1.1-1.8c0-1.6-0.9-10.4,5.6-16.7
	c5.6-5.5,10.5-4.9,13.7-4.8C71.8,57.9,71.9,61.4,75.9,60.7z M38.2,76.7l-3.4,3.1l1.5,1.4l3.2-3.2l2.2,2.4l2.7-2.6l-2-2.1l0.2-0.2
	v-0.3L41.4,74l-0.2-0.1h-0.3l-0.1,0.1l-0.6-0.6c-0.8-0.8-1.2-1.2-1.3-1.4l-0.3-0.3l-0.3,0.2c-0.1,0.1-0.1,0-0.2,0l-0.2-0.2L37,72.6
	l0.6,3.6L38.2,76.7z M24,77.9l2.7,2.6l2.2-2.4l11.1,11.1h0.4l1.2-1.3l0.1-0.2l0-0.3L30.3,76.7l0.6-0.6l0.6-3.6l-0.9-0.8l-0.2,0.2
	c0,0-0.1,0.1-0.2,0l-0.2-0.2L29.7,72c-0.2,0.2-0.6,0.7-1.4,1.5L27.7,74l-0.2-0.1h-0.3L26,75.2l-0.1,0.2v0.3l0.2,0.1L24,77.9z
	 M35.2,88.4l1.4-1.1l-1.3,0c-0.2,0-0.4,0-0.5,0c-0.1-0.3-0.2-0.5-0.3-0.9l-0.3-0.8l-0.6,1.7l-1.8,0l0.7,0.5c0.3,0.3,0.6,0.4,0.7,0.6
	c-0.1,0.2-0.1,0.5-0.3,0.9l-0.3,0.8l0.7-0.5c0.4-0.2,0.6-0.4,0.7-0.5l1.5,1L35.2,88.4z M33.7,83.9l-1.5-1.5l-5.5,5.2l-0.1,0.2l0,0.3
	l1.3,1.4h0.4L33.7,83.9z M132.8,93.2c0-0.2,0-1.1-0.8-1.2h-18c-0.3,0.1-0.5,0.3-0.6,0.6c-0.1,0.2-0.1,0.4-0.2,0.5c0,0.1,0,0.1,0,0.1
	h0c-5.2,13.9-18.6,23.8-34.3,23.8c-15.7,0-29.1-9.9-34.3-23.8l-0.1,0c0,0-0.2-1.1-0.9-1.3h-18c-0.7,0.1-0.8,0.8-0.8,1.1
	c5.8,24.5,27.8,42.7,54,42.7C105,135.9,127,117.7,132.8,93.2z M133.5,84.9v-8.2h0.8v-2.3l-5,0l-1.1,6.4l-1.2-6.4h-4.9v2.3h0.8v8.2
	h-0.8v2.3h3.8v-2.3h-0.7v-7.4l1.8,7.1h2.4l1.6-7.1l0,7.4h-0.6v2.3h3.9v-2.3H133.5z M106,48.7l7.1-6.7l0.7-1.3l5.4,5.7l-0.1,3.3
	l-2.6,2.4l-2.3-0.1l-1.6,3.3l-0.6,1.9l-2.8-3l2-3.8l-0.1-0.4l-0.7-0.7l-0.3,0l-1.9,1.8l-0.7,1.3l-3-3.2L106,48.7z M112.6,47.4
	l1.1,1.1l0.8,0.3l0.8-0.2l0.3-0.3l0.3-0.8l-0.2-0.8l-1.1-1.1l-0.3,0l-1.6,1.5L112.6,47.4z M39.8,50.5l0.9-1.1l0.3,0l5.7,5l1,1.7
	l3.1-3.6L49,51.7l-5.7-5l0-0.3l0.9-1.1l1.7-1L42.4,43l-5.2,6.1l1.9,3.3L39.8,50.5z M115.1,115.8l1.2,1.3l3.3-3l-1.2-1.3L115.1,115.8
	z M62.5,119.2l-1.8,3l-2.2,0.6l-0.6,3.6l0,2l-3.5-2l0.9-4.2l-0.2-0.3l-0.9-0.5l-0.2,0.1l-1.3,2.3l-0.3,1.5l-3.7-2.2l1.1-1l4.9-8.4
	l0.3-1.5l6.8,4L62.5,119.2z M58.7,118.1l-0.4-0.7l-1.3-0.8l-0.2,0.1l-1.1,2l0.1,0.2l1.3,0.8l0.8,0.1l0.7-0.4l0.2-0.4L58.7,118.1z
	 M70.8,120.6l-1.7,6.9l-0.5,0.6l-0.8,0.2l-0.7-0.2l-0.6-0.5l-0.2-0.8l1.7-6.9l0.8-1.3l-4.3-1.1l0.1,1.5l-1.9,7.7l-0.4,0.8l1.7,2.8
	l5.2,1.3L72,130l0-0.9l1.9-7.7l0.8-1.3l-4-1L70.8,120.6z M50,111.4l1,1l0.9,1.8l1.7-3.4l-5.6-5.7l-3.4,1.7l1.8,0.9l1,1v0.3l-5.4,5.3
	l-1.8,0.9l3.3,3.4l0.9-1.8l5.4-5.3L50,111.4z M81.2,129.6l-1.1-0.5l-0.5-0.9l-0.1-3.8l0.4-0.9L81,123l1.2,0l2.2,0.7l-1.3-3.7
	l-4.9,0.1l-2.5,2.6l0.1,7.6l2.6,2.5l5.1-0.1l1.2-3.7l-2.2,0.8L81.2,129.6z M117.2,111.6l-3.2,2.9l-2.4-0.1l-3.8-4.2l0.1-2.4l3.2-2.9
	l2.4,0.1l3.8,4.2L117.2,111.6z M114.6,110.6l-0.2-0.6l-2.2-2.4l-0.6-0.2l-0.6,0.2l-0.5,0.5l-0.2,0.6l0.2,0.6l2.2,2.4l0.6,0.2
	l0.6-0.2l0.5-0.5L114.6,110.6z M93.8,121.5l2.4-4.3l-0.4-0.3l-3.7,1.1l-0.1,1.1l-1.8,3.2l-0.2,0.4l-0.7-2.5l0-1.5l-4.2,1.2l0.8,1.3
	l2.6,9.4l0,1.5l4.2-1.2l-0.8-1.3l-0.9-3.2l0.1-0.4l0.6-1.1l0.3-0.1l2.6,3.9l0.6,1.5l4.3-1.2l-1.4-1.4L93.8,121.5z M110.9,118l-1,0.9
	l-1.2,0.3l-0.9-0.4l-2.5-2.8l-0.3-1l0.4-1.1l0.9-0.8l2.1-0.9l-3.4-1.9l-3.6,3.3l-0.2,3.6l5.1,5.6l3.6,0.2l3.7-3.4L112,116L110.9,118
	z M74.7,57.2c-0.5,0-1,0.4-1,1c0,0.5,0.4,1,1,1c0.5,0,1-0.4,1-1C75.7,57.7,75.3,57.2,74.7,57.2z"/>
</svg>
